<?xml version="1.0" standalone="no"?>
<!DOCTYPE svg PUBLIC "-//W3C//DTD SVG 20010904//EN"
 "http://www.w3.org/TR/2001/REC-SVG-20010904/DTD/svg10.dtd">
<svg version="1.0" xmlns="http://www.w3.org/2000/svg"
 width="512.000000pt" height="512.000000pt" viewBox="0 0 512.000000 512.000000"
 preserveAspectRatio="xMidYMid meet">
<metadata>
Created by potrace 1.11, written by Peter Selinger 2001-2013
</metadata>
<g transform="translate(0.000000,512.000000) scale(0.100000,-0.100000)"
fill="#000000" stroke="none">
<path d="M2471 5026 c-12 -14 -10 -16 10 -17 l24 -1 -25 -7 c-46 -13 4 -21
129 -21 435 0 916 -151 1295 -407 358 -242 633 -557 821 -938 89 -180 135
-303 180 -479 55 -219 70 -342 70 -596 0 -254 -15 -377 -70 -596 -45 -176 -91
-299 -180 -479 -188 -381 -463 -696 -821 -938 -380 -256 -853 -405 -1299 -408
-66 0 -129 -4 -140 -9 -17 -7 -16 -9 10 -10 29 -2 29 -2 -10 -15 l-40 -12 57
-8 c81 -10 381 12 533 40 955 177 1724 903 1954 1846 51 210 65 338 65 589 0
251 -14 378 -66 590 -225 927 -977 1648 -1918 1839 -118 24 -244 38 -425 47
-123 6 -142 5 -154 -10z"/>
<path d="M2530 4200 c0 -5 0 -743 0 -1640 0 -896 0 -1634 0 -1640 0 -6 47 -10
120 -10 l120 0 2 1483 3 1482 503 3 502 2 0 165 0 165 -625 0 c-410 0 -625 -3
-625 -10z"/>
</g>
</svg>
